<?xml version="1.0" encoding="UTF-8" standalone="no"?><!-- Generator: Gravit.io --><svg xmlns="http://www.w3.org/2000/svg" xmlns:xlink="http://www.w3.org/1999/xlink" style="isolation:isolate" viewBox="0 0 175 35" width="175pt" height="35pt"><defs><clipPath id="_clipPath_GigJ1aePAhEMO6B0rNO6hXpcX3ywMUbp"><rect width="175" height="35"/></clipPath></defs><g clip-path="url(#_clipPath_GigJ1aePAhEMO6B0rNO6hXpcX3ywMUbp)"><rect width="175" height="35" style="fill:rgb(0,0,0)" fill-opacity="0"/><path d=" M 126.414 29.319 L 126.414 29.319 Q 124.961 29.319 124.124 28.824 L 124.124 28.824 L 124.124 28.824 Q 122.944 28.14 122.944 26.722 L 122.944 26.722 L 122.944 26.722 Q 122.944 25.782 123.389 24.688 L 123.389 24.688 L 123.389 24.688 Q 124.038 25.389 124.585 25.671 L 124.585 25.671 L 124.585 25.671 Q 125.132 25.953 125.747 25.953 L 125.747 25.953 L 125.747 25.953 Q 127.49 25.953 128.43 23.799 L 128.43 23.799 L 128.43 23.799 Q 128.823 22.928 129.011 21.825 L 129.011 21.825 L 129.011 21.825 Q 129.199 20.723 129.199 19.664 L 129.199 19.664 L 129.199 19.664 Q 129.199 17.647 128.499 16.519 L 128.499 16.519 L 128.499 16.519 Q 127.661 15.203 125.884 15.203 L 125.884 15.203 L 125.884 15.203 Q 124.944 15.203 124.277 15.323 L 124.277 15.323 L 121.406 28.721 L 116.365 28.721 L 121.116 6.453 L 126.294 5.77 L 124.653 13.528 L 124.858 13.528 L 124.858 13.528 Q 125.867 13.528 126.79 13.033 L 126.79 13.033 L 126.79 13.033 Q 127.712 12.537 128.413 11.683 L 128.413 11.683 L 128.413 11.683 Q 129.097 10.845 129.498 9.837 L 129.498 9.837 L 129.498 9.837 Q 129.9 8.829 129.9 7.854 L 129.9 7.854 L 129.9 7.854 Q 129.9 7.103 129.635 6.427 L 129.635 6.427 L 129.635 6.427 Q 129.37 5.752 128.84 5.24 L 128.84 5.24 L 128.84 5.24 Q 127.627 4.078 125.286 4.078 L 125.286 4.078 L 125.286 4.078 Q 123.132 4.078 121.201 5 L 121.201 5 L 121.201 5 Q 119.048 6.043 117.903 7.82 L 117.903 7.82 L 117.903 7.82 Q 116.536 9.888 116.536 12.588 L 116.536 12.588 L 116.536 12.588 Q 116.536 13.716 116.792 14.332 L 116.792 14.332 L 116.792 14.332 Q 116.86 14.554 116.963 14.725 L 116.963 14.725 L 116.963 14.725 Q 117.031 14.844 117.031 14.964 L 117.031 14.964 L 117.031 14.964 Q 115.168 14.964 114.229 14.22 L 114.229 14.22 L 114.229 14.22 Q 113.289 13.477 113.289 11.751 L 113.289 11.751 L 113.289 11.751 Q 113.289 9.358 115.117 7.188 L 115.117 7.188 L 115.117 7.188 Q 115.972 6.163 117.159 5.3 L 117.159 5.3 L 117.159 5.3 Q 118.347 4.437 119.766 3.804 L 119.766 3.804 L 119.766 3.804 Q 122.756 2.471 125.986 2.471 L 125.986 2.471 L 125.986 2.471 Q 129.592 2.471 131.643 4.18 L 131.643 4.18 L 131.643 4.18 Q 132.532 4.932 132.985 5.932 L 132.985 5.932 L 132.985 5.932 Q 133.438 6.932 133.438 8.042 L 133.438 8.042 L 133.438 8.042 Q 133.438 9.7 132.549 11.119 L 132.549 11.119 L 132.549 11.119 Q 131.558 12.691 129.934 13.597 L 129.934 13.597 L 129.934 13.597 Q 132.036 13.973 133.13 15.63 L 133.13 15.63 L 133.13 15.63 Q 134.07 17.083 134.07 19.236 L 134.07 19.236 L 134.07 19.236 Q 134.07 20.125 133.899 21.202 L 133.899 21.202 L 133.899 21.202 Q 133.728 22.278 133.386 23.338 L 133.386 23.338 L 133.386 23.338 Q 132.549 25.97 131.011 27.457 L 131.011 27.457 L 131.011 27.457 Q 129.097 29.319 126.414 29.319 L 126.414 29.319 L 126.414 29.319 Z  M 140.41 28.858 L 140.41 28.858 Q 137.813 28.858 136.394 27.593 L 136.394 27.593 L 136.394 27.593 Q 134.805 26.192 134.805 23.338 L 134.805 23.338 L 134.805 23.338 Q 134.805 22.261 135.027 20.954 L 135.027 20.954 L 135.027 20.954 Q 135.249 19.646 135.71 18.313 L 135.71 18.313 L 135.71 18.313 Q 136.77 15.135 138.735 13.238 L 138.735 13.238 L 138.735 13.238 Q 141.111 10.914 144.392 10.914 L 144.392 10.914 L 144.392 10.914 Q 148.887 10.914 148.887 16.502 L 148.887 16.502 L 148.887 16.536 L 148.887 16.536 Q 148.989 16.57 149.058 16.57 L 149.058 16.57 L 149.263 16.57 L 149.263 16.57 Q 150.425 16.57 152.014 15.921 L 152.014 15.921 L 152.014 15.921 Q 153.416 15.34 154.663 14.468 L 154.663 14.468 L 154.971 15.425 L 154.971 15.425 Q 153.945 16.502 152.33 17.254 L 152.33 17.254 L 152.33 17.254 Q 150.715 18.006 148.767 18.331 L 148.767 18.331 L 148.767 18.331 Q 148.562 20.706 147.844 22.663 L 147.844 22.663 L 147.844 22.663 Q 147.126 24.62 145.999 26.021 L 145.999 26.021 L 145.999 26.021 Q 144.888 27.388 143.452 28.123 L 143.452 28.123 L 143.452 28.123 Q 142.017 28.858 140.41 28.858 L 140.41 28.858 L 140.41 28.858 Z  M 141.812 25.713 L 141.812 25.713 Q 142.427 25.713 143.068 25.158 L 143.068 25.158 L 143.068 25.158 Q 143.708 24.603 144.272 23.611 L 144.272 23.611 L 144.272 23.611 Q 144.836 22.62 145.247 21.287 L 145.247 21.287 L 145.247 21.287 Q 145.657 19.954 145.862 18.433 L 145.862 18.433 L 145.862 18.433 Q 145.349 18.296 145.135 17.92 L 145.135 17.92 L 145.135 17.92 Q 144.922 17.544 144.922 16.963 L 144.922 16.963 L 144.922 16.963 Q 144.922 16.246 145.212 15.767 L 145.212 15.767 L 145.212 15.767 Q 145.503 15.289 146.016 15.066 L 146.016 15.066 L 146.016 15.066 Q 145.947 13.956 145.657 13.477 L 145.657 13.477 L 145.657 13.477 Q 145.503 13.238 145.272 13.135 L 145.272 13.135 L 145.272 13.135 Q 145.042 13.033 144.683 13.033 L 144.683 13.033 L 144.683 13.033 Q 143.503 13.033 142.375 14.81 L 142.375 14.81 L 142.375 14.81 Q 141.333 16.417 140.667 18.775 L 140.667 18.775 L 140.667 18.775 Q 140.017 21.082 140.017 22.876 L 140.017 22.876 L 140.017 22.876 Q 140.017 23.748 140.111 24.295 L 140.111 24.295 L 140.111 24.295 Q 140.205 24.842 140.427 25.149 L 140.427 25.149 L 140.427 25.149 Q 140.632 25.457 140.957 25.585 L 140.957 25.585 L 140.957 25.585 Q 141.282 25.713 141.812 25.713 L 141.812 25.713 L 141.812 25.713 Z  M 163.259 28.926 L 163.259 28.926 Q 161.653 28.926 160.61 27.491 L 160.61 27.491 L 160.61 27.491 Q 159.465 25.918 158.987 22.842 L 158.987 22.842 L 154.167 28.721 L 151.638 28.721 L 158.713 20.74 L 158.149 16.827 L 158.149 16.827 Q 157.876 15.135 157.568 14.485 L 157.568 14.485 L 157.568 14.485 Q 157.295 13.921 156.816 13.921 L 156.816 13.921 L 156.816 13.921 Q 156.287 13.921 155.68 14.451 L 155.68 14.451 L 155.68 14.451 Q 155.073 14.981 154.441 16.023 L 154.441 16.023 L 154.441 16.023 Q 152.988 18.433 152.134 22.449 L 152.134 22.449 L 150.664 22.449 L 150.664 22.449 Q 151.348 19.424 152.271 17.186 L 152.271 17.186 L 152.271 17.186 Q 153.381 14.417 154.937 12.845 L 154.937 12.845 L 154.937 12.845 Q 156.731 11.05 158.918 11.05 L 158.918 11.05 L 158.918 11.05 Q 160.798 11.05 161.807 12.452 L 161.807 12.452 L 161.807 12.452 Q 162.542 13.494 162.712 15.203 L 162.712 15.203 L 163.02 17.869 L 163.02 17.869 Q 164.507 16.211 165.242 15.007 L 165.242 15.007 L 165.242 15.007 Q 165.977 13.802 166.062 12.828 L 166.062 12.828 L 166.062 12.828 Q 165.72 12.896 165.464 12.896 L 165.464 12.896 L 165.464 12.896 Q 164.609 12.896 164.199 12.315 L 164.199 12.315 L 164.199 12.315 Q 163.823 11.836 163.823 10.948 L 163.823 10.948 L 163.823 10.948 Q 163.823 10.11 164.541 9.615 L 164.541 9.615 L 164.541 9.615 Q 165.156 9.222 166.199 9.222 L 166.199 9.222 L 166.199 9.222 Q 166.66 9.222 167.036 9.495 L 167.036 9.495 L 167.036 9.495 Q 167.412 9.769 167.668 10.23 L 167.668 10.23 L 167.668 10.23 Q 167.908 10.691 168.036 11.264 L 168.036 11.264 L 168.036 11.264 Q 168.164 11.836 168.164 12.417 L 168.164 12.417 L 168.164 12.417 Q 168.164 13.221 167.874 14.032 L 167.874 14.032 L 167.874 14.032 Q 167.583 14.844 166.968 15.733 L 166.968 15.733 L 166.968 15.733 Q 166.404 16.553 165.558 17.527 L 165.558 17.527 L 165.558 17.527 Q 164.712 18.501 163.293 20.04 L 163.293 20.04 L 163.618 22.483 L 163.618 22.483 Q 163.823 24.158 164.353 24.876 L 164.353 24.876 L 164.353 24.876 Q 164.832 25.542 165.789 25.542 L 165.789 25.542 L 165.789 25.542 Q 166.797 25.542 167.668 24.671 L 167.668 24.671 L 167.668 24.671 Q 168.506 23.833 168.933 22.449 L 168.933 22.449 L 170.403 22.449 L 170.403 22.449 Q 169.138 26.106 166.899 27.73 L 166.899 27.73 L 166.899 27.73 Q 165.242 28.926 163.259 28.926 L 163.259 28.926 L 163.259 28.926 Z  M 15.261 29.319 L 15.261 29.319 Q 13.74 29.319 13.057 28.55 L 13.057 28.55 L 13.057 28.55 Q 12.527 27.969 12.527 26.978 L 12.527 26.978 L 12.527 26.978 Q 12.527 26.192 12.766 25.158 L 12.766 25.158 L 12.766 25.158 Q 13.005 24.124 13.467 22.483 L 13.467 22.483 L 13.467 22.483 Q 13.928 20.826 14.159 19.749 L 14.159 19.749 L 14.159 19.749 Q 14.39 18.672 14.39 17.767 L 14.39 17.767 L 14.39 17.767 Q 14.39 16.656 13.928 16.041 L 13.928 16.041 L 13.928 16.041 Q 13.416 15.391 12.288 15.391 L 12.288 15.391 L 12.288 15.391 Q 11.621 15.391 11.125 15.528 L 11.125 15.528 L 8.323 28.721 L 3.298 28.721 L 8.357 4.915 L 8.357 4.915 Q 5.999 5.906 4.734 7.854 L 4.734 7.854 L 4.734 7.854 Q 3.469 9.803 3.469 12.588 L 3.469 12.588 L 3.469 12.588 Q 3.469 13.682 3.708 14.332 L 3.708 14.332 L 3.708 14.332 Q 3.777 14.554 3.879 14.725 L 3.879 14.725 L 3.879 14.725 Q 3.948 14.844 3.948 14.964 L 3.948 14.964 L 3.948 14.964 Q 2.051 14.964 1.179 14.212 L 1.179 14.212 L 1.179 14.212 Q 0.205 13.392 0.205 11.563 L 0.205 11.563 L 0.205 11.563 Q 0.205 10.418 0.701 9.299 L 0.701 9.299 L 0.701 9.299 Q 1.196 8.179 2.102 7.137 L 2.102 7.137 L 2.102 7.137 Q 2.957 6.146 4.144 5.282 L 4.144 5.282 L 4.144 5.282 Q 5.332 4.419 6.716 3.787 L 6.716 3.787 L 6.716 3.787 Q 9.622 2.471 12.493 2.471 L 12.493 2.471 L 12.493 2.471 Q 13.279 2.471 13.894 2.54 L 13.894 2.54 L 11.621 13.255 L 12.612 11.939 L 12.612 11.939 Q 13.552 10.64 15.125 8.572 L 15.125 8.572 L 16.423 6.812 L 17.637 5.188 L 18.628 3.855 L 19.312 2.967 L 19.568 2.642 L 23.242 2.642 L 13.518 13.853 L 13.518 13.853 Q 13.962 13.853 14.15 13.836 L 14.15 13.836 L 14.15 13.836 Q 14.338 13.819 14.731 13.819 L 14.731 13.819 L 14.731 13.819 Q 17.124 13.819 18.184 14.878 L 18.184 14.878 L 18.184 14.878 Q 19.072 15.784 19.072 17.562 L 19.072 17.562 L 19.072 17.562 Q 19.072 18.536 18.85 19.638 L 18.85 19.638 L 18.85 19.638 Q 18.628 20.74 18.218 22.244 L 18.218 22.244 L 18.218 22.244 Q 17.756 23.919 17.56 24.799 L 17.56 24.799 L 17.56 24.799 Q 17.363 25.679 17.363 26.414 L 17.363 26.414 L 17.363 26.414 Q 17.363 27.234 17.731 27.858 L 17.731 27.858 L 17.731 27.858 Q 18.098 28.482 18.73 28.721 L 18.73 28.721 L 18.73 28.721 Q 16.628 29.319 15.261 29.319 L 15.261 29.319 L 15.261 29.319 Z  M 26.147 28.858 L 26.147 28.858 Q 23.55 28.858 22.131 27.593 L 22.131 27.593 L 22.131 27.593 Q 20.542 26.192 20.542 23.338 L 20.542 23.338 L 20.542 23.338 Q 20.542 22.261 20.764 20.954 L 20.764 20.954 L 20.764 20.954 Q 20.986 19.646 21.448 18.313 L 21.448 18.313 L 21.448 18.313 Q 22.507 15.135 24.473 13.238 L 24.473 13.238 L 24.473 13.238 Q 26.848 10.914 30.129 10.914 L 30.129 10.914 L 30.129 10.914 Q 34.624 10.914 34.624 16.502 L 34.624 16.502 L 34.624 16.536 L 34.624 16.536 Q 34.727 16.57 34.795 16.57 L 34.795 16.57 L 35 16.57 L 35 16.57 Q 36.162 16.57 37.751 15.921 L 37.751 15.921 L 37.751 15.921 Q 39.153 15.34 40.4 14.468 L 40.4 14.468 L 40.708 15.425 L 40.708 15.425 Q 39.683 16.502 38.068 17.254 L 38.068 17.254 L 38.068 17.254 Q 36.453 18.006 34.504 18.331 L 34.504 18.331 L 34.504 18.331 Q 34.299 20.706 33.582 22.663 L 33.582 22.663 L 33.582 22.663 Q 32.864 24.62 31.736 26.021 L 31.736 26.021 L 31.736 26.021 Q 30.625 27.388 29.189 28.123 L 29.189 28.123 L 29.189 28.123 Q 27.754 28.858 26.147 28.858 L 26.147 28.858 L 26.147 28.858 Z  M 27.549 25.713 L 27.549 25.713 Q 28.164 25.713 28.805 25.158 L 28.805 25.158 L 28.805 25.158 Q 29.446 24.603 30.01 23.611 L 30.01 23.611 L 30.01 23.611 Q 30.574 22.62 30.984 21.287 L 30.984 21.287 L 30.984 21.287 Q 31.394 19.954 31.599 18.433 L 31.599 18.433 L 31.599 18.433 Q 31.086 18.296 30.873 17.92 L 30.873 17.92 L 30.873 17.92 Q 30.659 17.544 30.659 16.963 L 30.659 16.963 L 30.659 16.963 Q 30.659 16.246 30.95 15.767 L 30.95 15.767 L 30.95 15.767 Q 31.24 15.289 31.753 15.066 L 31.753 15.066 L 31.753 15.066 Q 31.685 13.956 31.394 13.477 L 31.394 13.477 L 31.394 13.477 Q 31.24 13.238 31.01 13.135 L 31.01 13.135 L 31.01 13.135 Q 30.779 13.033 30.42 13.033 L 30.42 13.033 L 30.42 13.033 Q 29.241 13.033 28.113 14.81 L 28.113 14.81 L 28.113 14.81 Q 27.07 16.417 26.404 18.775 L 26.404 18.775 L 26.404 18.775 Q 25.754 21.082 25.754 22.876 L 25.754 22.876 L 25.754 22.876 Q 25.754 23.748 25.848 24.295 L 25.848 24.295 L 25.848 24.295 Q 25.942 24.842 26.165 25.149 L 26.165 25.149 L 26.165 25.149 Q 26.37 25.457 26.694 25.585 L 26.694 25.585 L 26.694 25.585 Q 27.019 25.713 27.549 25.713 L 27.549 25.713 L 27.549 25.713 Z  M 57.678 28.926 L 57.678 28.926 Q 55.508 28.926 54.465 27.696 L 54.465 27.696 L 54.465 27.696 Q 53.56 26.636 53.56 24.979 L 53.56 24.979 L 53.56 24.979 Q 53.56 24.192 53.756 23.15 L 53.756 23.15 L 53.756 23.15 Q 53.953 22.107 54.346 20.467 L 54.346 20.467 L 54.346 20.467 Q 54.739 18.792 54.935 17.792 L 54.935 17.792 L 54.935 17.792 Q 55.132 16.792 55.132 16.058 L 55.132 16.058 L 55.132 16.058 Q 55.132 14.263 53.867 14.263 L 53.867 14.263 L 53.867 14.263 Q 52.979 14.263 52.227 15.203 L 52.227 15.203 L 52.227 15.203 Q 51.594 16.006 51.133 17.493 L 51.133 17.493 L 48.757 28.721 L 43.716 28.721 L 46.279 16.639 L 46.279 16.639 Q 46.382 16.229 46.382 15.767 L 46.382 15.767 L 46.382 15.767 Q 46.382 15.066 46.16 14.69 L 46.16 14.69 L 46.16 14.69 Q 45.869 14.229 45.322 14.229 L 45.322 14.229 L 45.322 14.229 Q 44.331 14.229 43.596 15.186 L 43.596 15.186 L 43.596 15.186 Q 42.947 16.006 42.485 17.493 L 42.485 17.493 L 40.11 28.721 L 35.068 28.721 L 38.777 11.221 L 43.818 11.221 L 43.442 13.033 L 43.442 13.033 Q 44.468 11.888 45.681 11.409 L 45.681 11.409 L 45.681 11.409 Q 46.638 11.05 47.715 11.05 L 47.715 11.05 L 47.715 11.05 Q 49.185 11.05 50.056 11.734 L 50.056 11.734 L 50.056 11.734 Q 51.03 12.503 51.304 14.058 L 51.304 14.058 L 51.304 14.058 Q 52.432 12.315 53.901 11.597 L 53.901 11.597 L 53.901 11.597 Q 54.944 11.084 56.174 11.084 L 56.174 11.084 L 56.174 11.084 Q 57.935 11.084 58.96 12.007 L 58.96 12.007 L 58.96 12.007 Q 60.054 13.016 60.054 15.032 L 60.054 15.032 L 60.054 15.032 Q 60.054 16.177 59.626 18.194 L 59.626 18.194 L 59.626 18.194 Q 59.456 19.031 59.216 19.886 L 59.216 19.886 L 59.216 19.886 Q 58.789 21.526 58.516 22.911 L 58.516 22.911 L 58.516 22.911 Q 58.379 23.628 58.379 24.073 L 58.379 24.073 L 58.379 24.073 Q 58.379 24.773 58.695 25.158 L 58.695 25.158 L 58.695 25.158 Q 59.011 25.542 59.78 25.542 L 59.78 25.542 L 59.78 25.542 Q 60.823 25.542 61.541 24.688 L 61.541 24.688 L 61.541 24.688 Q 62.087 24.039 62.72 22.449 L 62.72 22.449 L 64.189 22.449 L 64.189 22.449 Q 62.891 26.294 60.908 27.833 L 60.908 27.833 L 60.908 27.833 Q 59.507 28.926 57.678 28.926 L 57.678 28.926 L 57.678 28.926 Z  M 67.368 28.926 L 67.368 28.926 Q 64.976 28.926 63.728 27.756 L 63.728 27.756 L 63.728 27.756 Q 62.48 26.585 62.48 24.449 L 62.48 24.449 L 62.48 24.449 Q 62.48 23.304 62.72 22.449 L 62.72 22.449 L 66.462 4.915 L 71.641 4.214 L 69.966 12.093 L 69.966 12.093 Q 70.974 11.478 71.675 11.272 L 71.675 11.272 L 71.675 11.272 Q 72.188 11.119 72.837 11.119 L 72.837 11.119 L 72.837 11.119 Q 74.802 11.119 75.828 12.435 L 75.828 12.435 L 75.828 12.435 Q 76.973 13.921 76.973 17.1 L 76.973 17.1 L 76.973 17.1 Q 76.973 18.194 76.768 19.467 L 76.768 19.467 L 76.768 19.467 Q 76.563 20.74 76.135 21.988 L 76.135 21.988 L 76.135 21.988 Q 75.11 24.979 73.162 26.773 L 73.162 26.773 L 73.162 26.773 Q 70.803 28.926 67.368 28.926 L 67.368 28.926 L 67.368 28.926 Z  M 69.333 25.542 L 69.333 25.542 Q 70.393 25.542 71.418 24.124 L 71.418 24.124 L 71.418 24.124 Q 72.307 22.859 72.888 20.809 L 72.888 20.809 L 72.888 20.809 Q 73.435 18.792 73.435 16.963 L 73.435 16.963 L 73.435 16.963 Q 73.435 15.545 72.991 14.639 L 72.991 14.639 L 72.991 14.639 Q 72.751 14.144 72.393 13.87 L 72.393 13.87 L 72.393 13.87 Q 72.034 13.597 71.572 13.597 L 71.572 13.597 L 71.572 13.597 Q 70.974 13.597 70.496 13.716 L 70.496 13.716 L 70.496 13.716 Q 69.778 13.904 69.504 14.229 L 69.504 14.229 L 67.59 23.116 L 67.59 23.116 Q 67.488 23.543 67.488 23.919 L 67.488 23.919 L 67.488 23.919 Q 67.488 25.542 69.333 25.542 L 69.333 25.542 L 69.333 25.542 Z  M 84.099 9.324 L 84.099 9.324 Q 83.535 9.324 83.022 9.111 L 83.022 9.111 L 83.022 9.111 Q 82.51 8.897 82.134 8.521 L 82.134 8.521 L 82.134 8.521 Q 81.758 8.162 81.544 7.649 L 81.544 7.649 L 81.544 7.649 Q 81.331 7.137 81.331 6.573 L 81.331 6.573 L 81.331 6.573 Q 81.331 6.009 81.544 5.496 L 81.544 5.496 L 81.544 5.496 Q 81.758 4.983 82.134 4.59 L 82.134 4.59 L 82.134 4.59 Q 82.51 4.197 83.022 3.984 L 83.022 3.984 L 83.022 3.984 Q 83.535 3.77 84.099 3.77 L 84.099 3.77 L 84.099 3.77 Q 84.663 3.77 85.176 3.984 L 85.176 3.984 L 85.176 3.984 Q 85.688 4.197 86.082 4.59 L 86.082 4.59 L 86.082 4.59 Q 86.475 4.983 86.688 5.496 L 86.688 5.496 L 86.688 5.496 Q 86.902 6.009 86.902 6.573 L 86.902 6.573 L 86.902 6.573 Q 86.902 7.137 86.688 7.649 L 86.688 7.649 L 86.688 7.649 Q 86.475 8.162 86.082 8.521 L 86.082 8.521 L 86.082 8.521 Q 85.688 8.897 85.176 9.111 L 85.176 9.111 L 85.176 9.111 Q 84.663 9.324 84.099 9.324 L 84.099 9.324 L 84.099 9.324 Z  M 81.724 28.926 L 81.724 28.926 Q 80.049 28.926 79.075 27.935 L 79.075 27.935 L 79.075 27.935 Q 77.981 26.841 77.981 24.739 L 77.981 24.739 L 77.981 24.739 Q 77.981 23.748 78.254 22.449 L 78.254 22.449 L 80.63 11.221 L 85.671 11.221 L 83.159 23.116 L 83.159 23.116 Q 83.022 23.56 83.022 24.244 L 83.022 24.244 L 83.022 24.244 Q 83.022 24.961 83.356 25.252 L 83.356 25.252 L 83.356 25.252 Q 83.689 25.542 84.441 25.542 L 84.441 25.542 L 84.441 25.542 Q 84.954 25.542 85.441 25.312 L 85.441 25.312 L 85.441 25.312 Q 85.928 25.081 86.338 24.671 L 86.338 24.671 L 86.338 24.671 Q 87.175 23.833 87.603 22.449 L 87.603 22.449 L 89.072 22.449 L 89.072 22.449 Q 88.132 25.098 86.714 26.67 L 86.714 26.67 L 86.714 26.67 Q 85.518 27.952 84.014 28.516 L 84.014 28.516 L 84.014 28.516 Q 82.92 28.926 81.724 28.926 L 81.724 28.926 L 81.724 28.926 Z  M 100.232 28.926 L 100.232 28.926 Q 98.062 28.926 97.019 27.696 L 97.019 27.696 L 97.019 27.696 Q 96.113 26.636 96.113 24.979 L 96.113 24.979 L 96.113 24.979 Q 96.113 24.192 96.31 23.15 L 96.31 23.15 L 96.31 23.15 Q 96.506 22.107 96.899 20.467 L 96.899 20.467 L 96.899 20.467 Q 97.292 18.792 97.489 17.792 L 97.489 17.792 L 97.489 17.792 Q 97.686 16.792 97.686 16.058 L 97.686 16.058 L 97.686 16.058 Q 97.686 14.263 96.421 14.263 L 96.421 14.263 L 96.421 14.263 Q 95.532 14.263 94.78 15.203 L 94.78 15.203 L 94.78 15.203 Q 94.148 16.006 93.687 17.493 L 93.687 17.493 L 91.311 28.721 L 86.27 28.721 L 89.978 11.221 L 95.02 11.221 L 94.644 13.033 L 94.644 13.033 Q 95.669 11.888 96.848 11.426 L 96.848 11.426 L 96.848 11.426 Q 97.72 11.084 98.728 11.084 L 98.728 11.084 L 98.728 11.084 Q 100.505 11.084 101.531 12.007 L 101.531 12.007 L 101.531 12.007 Q 102.625 13.016 102.625 15.032 L 102.625 15.032 L 102.625 15.032 Q 102.625 16.246 102.18 18.194 L 102.18 18.194 L 102.18 18.194 Q 102.061 18.758 101.787 19.886 L 101.787 19.886 L 101.787 19.886 Q 101.292 21.783 101.069 22.911 L 101.069 22.911 L 101.069 22.911 Q 100.933 23.628 100.933 24.073 L 100.933 24.073 L 100.933 24.073 Q 100.933 24.773 101.249 25.158 L 101.249 25.158 L 101.249 25.158 Q 101.565 25.542 102.334 25.542 L 102.334 25.542 L 102.334 25.542 Q 103.376 25.542 104.094 24.688 L 104.094 24.688 L 104.094 24.688 Q 104.641 24.039 105.273 22.449 L 105.273 22.449 L 106.743 22.449 L 106.743 22.449 Q 105.444 26.294 103.462 27.833 L 103.462 27.833 L 103.462 27.833 Q 102.061 28.926 100.232 28.926 L 100.232 28.926 L 100.232 28.926 Z " fill="rgb(255,255,255)"/></g></svg>